<svg xmlns="http://www.w3.org/2000/svg" xmlns:xlink="http://www.w3.org/1999/xlink" width="2048" zoomAndPan="magnify" viewBox="0 0 1536 1535.999932" height="2048" preserveAspectRatio="xMidYMid meet" version="1.0"><path fill="#66b302" d="M 384.667969 684.113281 L 449.472656 812.800781 C 450.628906 815.097656 453.914062 815.089844 455.054688 812.785156 L 518.921875 684.128906 C 519.449219 683.066406 520.53125 682.394531 521.71875 682.394531 L 541.363281 682.394531 C 543.085938 682.394531 544.484375 683.792969 544.484375 685.515625 L 544.484375 850.472656 C 544.484375 852.195312 543.085938 853.59375 541.363281 853.59375 L 523.144531 853.59375 C 521.421875 853.59375 520.027344 852.195312 520.027344 850.472656 L 520.027344 744.890625 C 520.027344 741.589844 515.574219 740.550781 514.109375 743.507812 L 460.476562 851.859375 C 459.953125 852.921875 458.867188 853.59375 457.683594 853.59375 L 445.910156 853.59375 C 444.71875 853.59375 443.632812 852.917969 443.109375 851.851562 L 389.722656 743.34375 C 388.265625 740.378906 383.800781 741.417969 383.800781 744.71875 L 383.800781 850.472656 C 383.800781 852.195312 382.402344 853.59375 380.683594 853.59375 L 362.464844 853.59375 C 360.742188 853.59375 359.34375 852.195312 359.34375 850.472656 L 359.34375 685.515625 C 359.34375 683.792969 360.742188 682.394531 362.464844 682.394531 L 381.878906 682.394531 C 383.058594 682.394531 384.136719 683.058594 384.667969 684.113281 Z M 384.667969 684.113281 " fill-opacity="1" fill-rule="nonzero"/><path fill="#66b302" d="M 568.449219 850.472656 L 568.449219 685.515625 C 568.449219 683.792969 569.84375 682.394531 571.566406 682.394531 L 642.0625 682.394531 C 658.363281 682.394531 671.777344 687.859375 682.292969 698.78125 C 692.808594 709.707031 698.066406 722.75 698.066406 737.910156 C 698.066406 750.140625 694.480469 760.863281 687.308594 770.074219 C 680.945312 778.238281 672.984375 784.003906 663.421875 787.363281 C 661.535156 788.027344 660.75 790.265625 661.804688 791.960938 L 697.289062 848.820312 C 698.585938 850.898438 697.09375 853.59375 694.640625 853.59375 L 674.601562 853.59375 C 673.527344 853.59375 672.527344 853.039062 671.957031 852.128906 L 634.90625 792.9375 C 634.335938 792.027344 633.335938 791.472656 632.261719 791.472656 L 596.757812 791.472656 C 595.035156 791.472656 593.636719 792.871094 593.636719 794.59375 L 593.636719 850.472656 C 593.636719 852.195312 592.238281 853.59375 590.515625 853.59375 L 571.566406 853.59375 C 569.84375 853.59375 568.449219 852.195312 568.449219 850.472656 Z M 640.105469 769.214844 C 649.722656 769.214844 657.714844 766.242188 664.074219 760.289062 C 670.433594 754.339844 673.613281 746.636719 673.613281 737.179688 C 673.613281 727.722656 670.761719 720.425781 665.054688 714.3125 C 659.34375 708.199219 651.683594 705.140625 642.066406 705.140625 L 596.761719 705.140625 C 595.039062 705.140625 593.640625 706.539062 593.640625 708.261719 L 593.640625 766.097656 C 593.640625 767.820312 595.039062 769.21875 596.761719 769.21875 L 640.109375 769.21875 Z M 640.105469 769.214844 " fill-opacity="1" fill-rule="nonzero"/><path fill="#66b302" d="M 743.3125 685.515625 L 743.3125 768.113281 C 743.3125 770.984375 746.855469 772.332031 748.761719 770.191406 L 826.023438 683.441406 C 826.617188 682.777344 827.460938 682.398438 828.351562 682.398438 L 851.257812 682.398438 C 853.957031 682.398438 855.382812 685.59375 853.578125 687.605469 L 744.113281 809.417969 C 743.597656 809.988281 743.3125 810.734375 743.3125 811.503906 L 743.3125 850.476562 C 743.3125 852.199219 741.914062 853.597656 740.191406 853.597656 L 721 853.597656 C 719.277344 853.597656 717.878906 852.199219 717.878906 850.476562 L 717.878906 685.515625 C 717.878906 683.792969 719.277344 682.394531 721 682.394531 L 740.191406 682.394531 C 741.914062 682.394531 743.3125 683.792969 743.3125 685.515625 Z M 810.28125 789.964844 L 856.699219 848.535156 C 858.316406 850.582031 856.863281 853.59375 854.25 853.59375 L 830.910156 853.59375 C 829.957031 853.59375 829.054688 853.160156 828.464844 852.414062 L 782.046875 793.84375 C 780.429688 791.796875 781.882812 788.785156 784.496094 788.785156 L 807.835938 788.785156 C 808.789062 788.785156 809.691406 789.21875 810.28125 789.964844 Z M 810.28125 789.964844 " fill-opacity="1" fill-rule="nonzero"/><path fill="#66b302" d="M 843.84375 682.394531 L 975.953125 682.394531 C 977.675781 682.394531 979.074219 683.792969 979.074219 685.515625 L 979.074219 702.753906 C 979.074219 704.476562 977.675781 705.875 975.953125 705.875 L 927.167969 705.875 C 925.445312 705.875 924.046875 707.273438 924.046875 708.996094 L 924.046875 850.472656 C 924.046875 852.195312 922.648438 853.59375 920.925781 853.59375 L 901.976562 853.59375 C 900.253906 853.59375 898.855469 852.195312 898.855469 850.472656 L 898.855469 708.996094 C 898.855469 707.273438 897.457031 705.875 895.738281 705.875 L 835.648438 705.875 C 833.355469 705.875 831.847656 703.484375 832.832031 701.414062 L 841.027344 684.175781 C 841.542969 683.089844 842.640625 682.394531 843.84375 682.394531 Z M 843.84375 682.394531 " fill-opacity="1" fill-rule="nonzero"/><path fill="#66b302" d="M 1174.464844 686.703125 C 1175.296875 684.652344 1173.785156 682.410156 1171.574219 682.410156 L 1121 682.410156 C 1104.324219 682.410156 1089.035156 696.40625 1079.054688 720.816406 L 1069.398438 744.421875 L 1059.757812 768.007812 L 1043.226562 808.453125 C 1036.230469 825.542969 1026.730469 835.746094 1017.8125 835.746094 L 990.660156 835.746094 C 989.921875 835.746094 989.417969 835 989.699219 834.316406 L 1016.121094 769.179688 C 1016.425781 768.425781 1016.425781 767.585938 1016.121094 766.832031 L 989.699219 701.699219 C 989.421875 701.011719 989.925781 700.265625 990.660156 700.265625 L 1031.367188 700.265625 C 1031.789062 700.265625 1032.171875 700.523438 1032.332031 700.914062 L 1049.636719 743.25 C 1050.695312 745.835938 1054.355469 745.835938 1055.414062 743.25 L 1061.6875 727.898438 C 1061.996094 727.144531 1061.996094 726.296875 1061.6875 725.539062 L 1044.847656 684.347656 C 1044.367188 683.175781 1043.226562 682.410156 1041.960938 682.410156 L 967.230469 682.410156 C 965.015625 682.410156 963.507812 684.652344 964.339844 686.703125 L 996.84375 766.832031 C 997.152344 767.585938 997.152344 768.425781 996.84375 769.179688 L 964.339844 849.308594 C 963.507812 851.359375 965.015625 853.601562 967.230469 853.601562 L 1017.8125 853.601562 C 1034.488281 853.601562 1049.78125 839.605469 1059.757812 815.207031 L 1069.402344 791.613281 L 1079.058594 768.007812 L 1095.585938 727.566406 C 1102.574219 710.480469 1112.085938 700.265625 1121.003906 700.265625 L 1148.152344 700.265625 C 1148.890625 700.265625 1149.394531 701.011719 1149.117188 701.699219 L 1122.691406 766.832031 C 1122.386719 767.585938 1122.386719 768.425781 1122.691406 769.179688 L 1149.117188 834.316406 C 1149.394531 835 1148.890625 835.746094 1148.152344 835.746094 L 1107.445312 835.746094 C 1107.023438 835.746094 1106.644531 835.488281 1106.484375 835.097656 L 1089.175781 792.757812 C 1088.117188 790.171875 1084.457031 790.171875 1083.398438 792.757812 L 1077.117188 808.113281 C 1076.808594 808.867188 1076.808594 809.71875 1077.117188 810.476562 L 1093.96875 851.664062 C 1094.449219 852.835938 1095.585938 853.601562 1096.855469 853.601562 L 1171.574219 853.601562 C 1173.785156 853.601562 1175.296875 851.363281 1174.464844 849.308594 L 1141.96875 769.175781 C 1141.664062 768.425781 1141.664062 767.582031 1141.96875 766.832031 L 1174.464844 686.699219 Z M 1174.464844 686.703125 " fill-opacity="1" fill-rule="nonzero"/></svg>